<svg xmlns="http://www.w3.org/2000/svg" version="1.1" xmlns:xlink="http://www.w3.org/1999/xlink" xmlns:svgjs="http://svgjs.dev/svgjs" width="308.7612359841165"
   height="304.915625" viewBox="0 0 1000 1000"><g transform="matrix(1,0,0,1,0,0.00012754831419670154)"><svg viewBox="0 0 280 280" data-background-color="#ffffff" preserveAspectRatio="xMidYMid meet" height="1000" width="1000" xmlns="http://www.w3.org/2000/svg" xmlns:xlink="http://www.w3.org/1999/xlink"><g id="tight-bounds" transform="matrix(1,0,0,1,0,-0.000035713527978487036)"><svg viewBox="0 0 280 280" height="280" width="280"><g><svg viewBox="0 0 280 280" height="280" width="280"><g><svg viewBox="0 0 280 280" height="280" width="280"><g id="textblocktransform"><svg viewBox="0 0 280 280" height="280" width="280" id="textblock"><g><svg viewBox="0 0 280 280" height="280" width="280"><g transform="matrix(1,0,0,1,57.50420886156945,57.50420886156945)"><svg viewBox="0 0 164.9915822768611 164.9915822768611" height="164.9915822768611" width="164.9915822768611"><g><circle r="82" cx="82.49579113843055" cy="82.49579113843055" fill="#8d021f" data-fill-palette-color="accent"></circle><svg xmlns="http://www.w3.org/2000/svg" data-name="Glyph Icon" viewBox="7.210000038146973 4 49.58000183105469 56" x="24.74873734152917" y="24.748737341529164" height="115.49410759380275" width="115.49410759380275" class="icon-o-0" data-fill-palette-color="quaternary" id="o-0"><path d="M49.13 20.84l-16-9.26V4L55.7 17.05ZM32 50.52L16 41.26V22.74l16-9.26 16 9.26V41.26ZM30.91 11.58l-16 9.26L8.3 17.05 30.91 4ZM13.77 22.74V41.26L7.21 45.05V19Zm1.1 20.42l16 9.26V60L8.3 47Zm18.22 9.26l16-9.26L55.7 47 33.09 60ZM50.23 41.26V22.74L56.79 19v26.1Z" fill="#ffffff" data-fill-palette-color="quaternary"></path></svg></g></svg></g><g><path d="M31.917 103.744l-3.652 9.739-0.392-0.147-0.006-0.949c-0.031-0.976-0.547-1.652-1.549-2.028v0l-20.654-7.746c-1.057-0.397-1.891-0.227-2.5 0.509v0l-0.628 0.712-0.392-0.147 3.918-10.449c1.05-2.799 2.476-5.013 4.279-6.642 1.794-1.626 3.867-2.622 6.218-2.988 2.351-0.367 4.885-0.041 7.603 0.978v0c2.768 1.038 4.905 2.517 6.412 4.438 1.507 1.92 2.38 4.134 2.617 6.642 0.228 2.512-0.196 5.204-1.274 8.078zM5.952 95.943l24.535 9.201 0.637-1.698c0.711-1.897 0.909-3.568 0.593-5.013-0.316-1.445-1.262-2.772-2.839-3.98-1.576-1.208-3.922-2.397-7.037-3.565v0c-3.116-1.169-5.665-1.816-7.646-1.942-1.982-0.126-3.562 0.239-4.742 1.095-1.177 0.85-2.112 2.198-2.804 4.045v0z" fill="#ff908b" data-fill-palette-color="primary"></path><path d="M141.677 28.695v0c-2.139-0.006-4.031-0.391-5.676-1.153-1.652-0.769-2.93-1.978-3.835-3.628-0.912-1.65-1.363-3.827-1.355-6.53v0l0.044-14.587c0.003-1.069-0.546-1.775-1.648-2.117v0l-0.926-0.262 0.001-0.418 11.707 0.035-0.001 0.419-1.226 0.335c-1.044 0.256-1.567 0.958-1.571 2.107v0l-0.047 15.603c-0.008 2.617 0.534 4.555 1.627 5.813 1.099 1.259 2.678 1.891 4.737 1.898v0c2.139 0.006 3.838-0.649 5.097-1.968 1.259-1.325 1.893-3.199 1.9-5.623v0l0.046-15.513c0.002-0.558-0.09-1.056-0.274-1.496-0.185-0.439-0.556-0.729-1.113-0.87v0l-1.056-0.262 0.001-0.418 5.909 0.017-0.002 0.419-1.136 0.295c-0.538 0.111-0.891 0.379-1.059 0.804-0.174 0.418-0.262 0.909-0.263 1.474v0l-0.047 15.473c-0.006 2.059-0.42 3.855-1.241 5.386-0.822 1.532-1.964 2.711-3.428 3.537-1.47 0.826-3.192 1.236-5.165 1.23z" fill="#ff908b" data-fill-palette-color="primary"></path><path d="M249.702 108.665l-4.169-11.121 0.392-0.147 0.762 1.066c0.615 0.826 1.448 1.043 2.499 0.649v0l7.528-2.823 10.847-11.514c0.44-0.435 0.753-0.8 0.94-1.097 0.193-0.299 0.305-0.682 0.336-1.147v0l0.098-0.846 0.392-0.147 3.976 10.608-0.392 0.147-0.546-0.604c-0.456-0.496-0.898-0.692-1.327-0.588-0.431 0.098-0.899 0.394-1.401 0.887v0l-8.626 8.554 12.725 1.188c0.502 0.053 0.97-0.023 1.404-0.228 0.431-0.211 0.615-0.603 0.549-1.174v0l-0.005-0.637 0.392-0.147 1.78 4.749-0.392 0.147-0.559-0.642c-0.375-0.434-0.772-0.707-1.191-0.82-0.418-0.113-0.92-0.194-1.506-0.244v0l-13.436-1.156-9.348 3.505c-0.522 0.196-0.911 0.455-1.167 0.777-0.255 0.323-0.357 0.761-0.304 1.317v0l0.141 1.341z" fill="#ff908b" data-fill-palette-color="primary"></path><path d="M12.881 190.245l-3.653-9.739 0.392-0.147 0.628 0.711c0.665 0.715 1.499 0.885 2.501 0.509v0l20.654-7.746c1.057-0.397 1.573-1.073 1.548-2.027v0l0.006-0.95 0.392-0.147 3.918 10.449c1.05 2.799 1.431 5.405 1.144 7.817-0.283 2.405-1.189 4.518-2.719 6.341-1.53 1.822-3.654 3.243-6.371 4.262v0c-2.768 1.038-5.351 1.329-7.749 0.874-2.398-0.455-4.511-1.55-6.339-3.284-1.824-1.742-3.275-4.05-4.352-6.923zM37.572 179.048l-24.535 9.202 0.637 1.698c0.711 1.897 1.661 3.286 2.85 4.166 1.189 0.881 2.774 1.258 4.755 1.132 1.982-0.126 4.53-0.773 7.646-1.942v0c3.116-1.169 5.462-2.357 7.038-3.565 1.576-1.208 2.527-2.522 2.852-3.942 0.328-1.414 0.146-3.045-0.547-4.892v0z" fill="#ff908b" data-fill-palette-color="primary"></path><path d="M141.742 280v0c-2.139 0.006-4.033-0.366-5.682-1.119-1.656-0.759-2.942-1.961-3.857-3.605-0.922-1.645-1.386-3.818-1.394-6.522v0l-0.044-14.586c-0.003-1.069-0.557-1.772-1.66-2.107v0l-0.928-0.257-0.001-0.418 11.707-0.035 0.001 0.418-1.224 0.343c-1.042 0.262-1.561 0.968-1.558 2.117v0l0.047 15.602c0.008 2.617 0.562 4.552 1.661 5.804 1.106 1.252 2.689 1.875 4.748 1.869v0c2.139-0.006 3.834-0.672 5.086-1.998 1.251-1.332 1.873-3.211 1.866-5.635v0l-0.047-15.513c-0.002-0.558-0.096-1.056-0.283-1.494-0.187-0.438-0.56-0.726-1.119-0.863v0l-1.057-0.256-0.001-0.419 5.908-0.017 0.002 0.418-1.135 0.302c-0.538 0.115-0.889 0.385-1.054 0.811-0.171 0.419-0.256 0.911-0.255 1.475v0l0.047 15.473c0.006 2.059-0.397 3.857-1.21 5.394-0.812 1.537-1.948 2.723-3.406 3.557-1.465 0.835-3.185 1.255-5.158 1.261z" fill="#ff908b" data-fill-palette-color="primary"></path><path d="M268.74 185.321l-4.169 11.121-0.392-0.147 0.127-1.304c0.08-1.027-0.406-1.737-1.457-2.131v0l-7.528-2.823-15.743 1.547c-0.617 0.038-1.094 0.108-1.43 0.209-0.342 0.099-0.678 0.313-1.007 0.644v0l-0.63 0.573-0.391-0.147 3.976-10.608 0.392 0.147 0.014 0.814c0.017 0.673 0.222 1.112 0.613 1.316 0.39 0.21 0.936 0.294 1.64 0.252v0l12.123-0.775-8.808-9.261c-0.344-0.37-0.746-0.62-1.208-0.751-0.464-0.124-0.859 0.05-1.186 0.524v0l-0.415 0.483-0.392-0.147 1.78-4.749 0.392 0.147 0 0.852c-0.002 0.574 0.117 1.041 0.358 1.4 0.241 0.36 0.566 0.751 0.975 1.174v0l9.366 9.704 9.348 3.504c0.522 0.196 0.986 0.256 1.39 0.18 0.404-0.075 0.769-0.339 1.095-0.792v0l0.775-1.103z" fill="#ff908b" data-fill-palette-color="primary"></path><path d="M11.117 143.425c0-1.766 1.431-3.197 3.197-3.197 1.766 0 3.197 1.431 3.197 3.197 0 1.766-1.431 3.197-3.197 3.197-1.766 0-3.197-1.431-3.197-3.197z" fill="#ff908b" data-fill-palette-color="primary"></path><path d="M262.198 143.425c0-1.766 1.431-3.197 3.197-3.197 1.766 0 3.197 1.431 3.197 3.197 0 1.766-1.431 3.197-3.197 3.197-1.766 0-3.197-1.431-3.197-3.197z" fill="#ff908b" data-fill-palette-color="primary"></path></g></svg></g></svg></g></svg></g><g></g></svg></g><defs></defs></svg><rect width="280" height="280" fill="none" stroke="none" visibility="hidden"></rect></g></svg></g></svg>